<svg width="16" height="20" viewBox="0 0 16 20" fill="none" xmlns="http://www.w3.org/2000/svg">
                                        <path d="M14.6448 8.99798C14.223 8.02696 13.6099 7.15543 12.8438 6.43787L12.2116 5.84453C12.1901 5.82499 12.1643 5.81106 12.1363 5.80409C12.1084 5.79704 12.0792 5.79721 12.0513 5.80443C12.0234 5.81165 11.9978 5.82584 11.9764 5.84555C11.9551 5.86535 11.9389 5.89016 11.9292 5.91786L11.6468 6.74682C11.4708 7.26683 11.1471 7.79797 10.6886 8.32018C10.6582 8.35349 10.6235 8.36241 10.5996 8.36462C10.5757 8.36683 10.5388 8.36241 10.5062 8.33132C10.4758 8.30464 10.4606 8.26462 10.4627 8.22459C10.5431 6.88685 10.1521 5.37789 9.29609 3.73562C8.58788 2.37114 7.60377 1.30668 6.3741 0.564432L5.47683 0.0244217C5.35957 -0.0466972 5.2096 0.0466409 5.21615 0.186644L5.26398 1.25334C5.29653 1.98225 5.21402 2.62671 5.01842 3.16227C4.77949 3.81784 4.43622 4.42675 3.99735 4.97343C3.69198 5.35333 3.34581 5.69703 2.96549 5.9979C2.04933 6.71827 1.3044 7.64137 0.786445 8.69796C0.269767 9.7638 0.000628769 10.9373 0 12.127C0 13.1759 0.202039 14.1914 0.601783 15.1492C0.987762 16.0714 1.54477 16.9083 2.24201 17.6137C2.94587 18.3248 3.76276 18.8849 4.67303 19.2738C5.61592 19.6782 6.61524 19.8826 7.64719 19.8826C8.67913 19.8826 9.67845 19.6782 10.6213 19.276C11.5293 18.8894 12.3551 18.3255 13.0523 17.6159C13.7563 16.9048 14.3081 16.0737 14.6925 15.1514C15.0917 14.1963 15.2965 13.1679 15.2944 12.1292C15.2944 11.0447 15.0771 9.99135 14.6448 8.99798Z" fill="#FF0000"></path>
                                      </svg>